<svg width="22" height="22" viewBox="0 0 22 22" fill="none" xmlns="http://www.w3.org/2000/svg">
<path d="M12.6739 11L21.6014 2.03261C22.0797 1.55435 22.0797 0.797101 21.6014 0.358696C21.1232 -0.119565 20.3659 -0.119565 19.9275 0.358696L11 9.32609L2.03261 0.358696C1.55435 -0.119565 0.797101 -0.119565 0.358696 0.358696C-0.119565 0.836957 -0.119565 1.5942 0.358696 2.03261L9.28623 11L0.358696 19.9674C-0.119565 20.4457 -0.119565 21.2029 0.358696 21.6413C0.597826 21.8804 0.916667 22 1.19565 22C1.47464 22 1.79348 21.8804 2.03261 21.6413L11 12.6739L19.9674 21.6413C20.2065 21.8804 20.5254 22 20.8043 22C21.0833 22 21.4022 21.8804 21.6413 21.6413C22.1196 21.163 22.1196 20.4058 21.6413 19.9674L12.6739 11Z" fill="white"/>
</svg>
