<svg width="48" height="48" viewBox="0 0 48 48" fill="none" xmlns="http://www.w3.org/2000/svg">
<path d="M27.3174 18.7965C28.0999 18.7965 28.8315 19.1105 29.3929 19.6686C30.5327 20.8372 30.5327 22.7384 29.3929 23.907L24 29.436L18.6071 23.9244C17.4673 22.7558 17.4673 20.8547 18.6071 19.686C19.1515 19.1279 19.9001 18.814 20.6826 18.814C21.4652 18.814 22.1967 19.1279 22.7581 19.686L24 20.9593L25.2419 19.686C25.7863 19.1105 26.5348 18.7965 27.3174 18.7965ZM27.3174 17C26.1095 17 24.9187 17.4709 24 18.3953C23.0813 17.4535 21.8905 17 20.6826 17C19.4747 17 18.2839 17.4709 17.3652 18.3953C15.5449 20.2616 15.5449 23.3314 17.3652 25.1977L24 32L30.6348 25.1977C32.4551 23.3314 32.4551 20.2791 30.6348 18.3953C29.7161 17.4709 28.5082 17 27.3174 17Z" fill="white"/>
<circle cx="24" cy="24" r="23" stroke="#FF6E00" stroke-width="2"/>
</svg>
