<svg width="37" height="38" viewBox="0 0 37 38" fill="none" xmlns="http://www.w3.org/2000/svg">
<path d="M36.5 18.5957C36.5 28.5921 28.4387 36.6914 18.5 36.6914C8.5613 36.6914 0.5 28.5921 0.5 18.5957C0.5 8.59928 8.5613 0.5 18.5 0.5C28.4387 0.5 36.5 8.59928 36.5 18.5957Z" fill="#FF6E00" stroke="#FF6E00"/>
<path fill-rule="evenodd" clip-rule="evenodd" d="M18.5 18C16.025 18 14 15.975 14 13.5C14 11.025 16.025 9 18.5 9C20.975 9 23 11.025 23 13.5C23 15.975 20.975 18 18.5 18ZM18.5 11.1375C17.2062 11.1375 16.1375 12.2063 16.1375 13.5C16.1375 14.7937 17.2062 15.8625 18.5 15.8625C19.7937 15.8625 20.8625 14.7937 20.8625 13.5C20.8625 12.2063 19.7937 11.1375 18.5 11.1375Z" fill="white"/>
<path fill-rule="evenodd" clip-rule="evenodd" d="M23.7689 18.4492C23.3411 17.9567 22.6077 17.902 22.0577 18.2303C22.0577 18.2303 20.7132 19.1058 18.5131 19.1058C16.313 19.1058 14.9684 18.2303 14.9684 18.2303C14.4184 17.8473 13.685 17.9567 13.2573 18.4492C12.8295 18.9416 12.9517 19.5982 13.5017 19.9812C13.5628 20.0359 14.8462 20.9114 16.9852 21.185L13.7462 24.1397C13.2573 24.5774 13.2573 25.2887 13.7462 25.6717C13.9906 25.8906 14.2962 26 14.6018 26C14.9073 26 15.2129 25.8906 15.4574 25.6717L18.5131 22.8812L21.5688 25.6717C21.8132 25.8906 22.1188 26 22.4244 26C22.7299 26 23.0355 25.8906 23.28 25.6717C23.7689 25.234 23.7689 24.5774 23.28 24.1397L20.0409 21.185C22.1799 20.8567 23.4633 19.9812 23.5244 19.9812C24.0744 19.5982 24.1356 18.8869 23.7689 18.4492Z" fill="white"/>
</svg>
