<svg width="37" height="38" viewBox="0 0 37 38" fill="none" xmlns="http://www.w3.org/2000/svg">
<path d="M36.5 18.5957C36.5 28.5921 28.4387 36.6914 18.5 36.6914C8.5613 36.6914 0.5 28.5921 0.5 18.5957C0.5 8.59928 8.5613 0.5 18.5 0.5C28.4387 0.5 36.5 8.59928 36.5 18.5957Z" fill="#FF6E00" stroke="#FF6E00"/>
<path d="M24.2875 12.4977L11.3164 17.7609C10.8608 17.9498 10.9093 18.5924 11.3843 18.7152L13.9921 19.3861C14.1569 19.4239 14.2926 19.5562 14.3508 19.7168L15.6692 23.676C15.7855 24.0445 16.2896 24.1485 16.5514 23.8461L18.0443 22.1642C18.2285 21.9563 18.5484 21.9279 18.7617 22.098L21.67 24.3469C21.9706 24.5831 22.4165 24.432 22.5038 24.0634L24.9855 13.0741C25.0825 12.6772 24.6753 12.3465 24.2875 12.4977ZM21.9124 15.2663L16.3866 19.9625C16.2606 20.0665 16.183 20.2176 16.1733 20.3783L15.9794 22.5043C15.9697 22.5988 15.8437 22.6083 15.8146 22.5232L14.9324 19.4428C14.8937 19.32 14.9421 19.1877 15.0585 19.1215L21.8251 15.1529C21.9027 15.1057 21.9803 15.2096 21.9124 15.2663Z" fill="white"/>
</svg>
