<svg width="37" height="38" viewBox="0 0 37 38" fill="none" xmlns="http://www.w3.org/2000/svg">
<path d="M36.5 18.5957C36.5 28.5921 28.4387 36.6914 18.5 36.6914C8.5613 36.6914 0.5 28.5921 0.5 18.5957C0.5 8.59928 8.5613 0.5 18.5 0.5C28.4387 0.5 36.5 8.59928 36.5 18.5957Z" fill="#FF6E00" stroke="#FF6E00"/>
<path fill-rule="evenodd" clip-rule="evenodd" d="M27 13.9289C26.3993 14.2009 25.7986 14.3641 25.0887 14.4729C25.744 14.0377 26.2901 13.4394 26.5631 12.6779C25.9079 13.0586 25.198 13.3306 24.4881 13.4938C23.8874 12.8411 23.0137 12.4603 22.0853 12.4603C20.2833 12.4603 18.7543 13.9289 18.7543 15.7783C18.7543 16.0503 18.8089 16.2679 18.8635 16.5398C16.1331 16.431 13.6758 15.0712 12.0375 13.113C11.7645 13.6026 11.6007 14.1465 11.6007 14.7448C11.6007 15.8871 12.2014 16.9206 13.0751 17.4645C12.529 17.4645 12.0375 17.3013 11.5461 17.0294V17.0838C11.5461 18.6612 12.6928 20.021 14.2218 20.293C13.9488 20.3473 13.6758 20.4017 13.3481 20.4017C13.1297 20.4017 12.9113 20.4018 12.7474 20.3474C13.1843 21.6528 14.3857 22.6319 15.8601 22.6319C14.7133 23.5022 13.2935 24.0461 11.7645 24.0461C11.4915 24.0461 11.2184 24.0461 11 23.9917C12.4744 24.9164 14.1672 25.4603 16.0785 25.4603C22.1399 25.4603 25.471 20.4561 25.471 16.1047C25.471 15.9415 25.471 15.8327 25.471 15.6695C25.9625 15.18 26.5085 14.636 27 13.9289Z" fill="white"/>
</svg>
