<svg width="37" height="38" viewBox="0 0 37 38" fill="none" xmlns="http://www.w3.org/2000/svg">
<path d="M36.5 18.5957C36.5 28.5921 28.4387 36.6914 18.5 36.6914C8.5613 36.6914 0.5 28.5921 0.5 18.5957C0.5 8.59928 8.5613 0.5 18.5 0.5C28.4387 0.5 36.5 8.59928 36.5 18.5957Z" fill="#FF6E00" stroke="#FF6E00"/>
<path fill-rule="evenodd" clip-rule="evenodd" d="M17.2374 24.3912H18.3929C18.3929 24.3912 18.7395 24.333 18.9128 24.1586C19.0862 23.9842 19.0862 23.6353 19.0862 23.6353C19.0862 23.6353 19.0862 22.1236 19.7795 21.891C20.4727 21.6585 21.3971 23.4027 22.3215 24.0423C23.0148 24.5656 23.5925 24.4493 23.5925 24.4493L26.1346 24.3912C26.1346 24.3912 27.4634 24.333 26.8279 23.2283C26.7701 23.1702 26.4812 22.4725 24.9213 21.0189C23.3037 19.5072 23.5348 19.7979 25.4413 17.1815C26.5968 15.6116 27.059 14.6813 26.9434 14.2162C26.8279 13.8092 25.9613 13.9255 25.9613 13.9255H23.0726C23.0726 13.9255 22.8415 13.9255 22.7259 13.9836C22.5526 14.0999 22.4948 14.2743 22.4948 14.2743C22.4948 14.2743 22.0326 15.4953 21.4549 16.5419C20.1839 18.6932 19.6639 18.8095 19.4906 18.6932C19.0284 18.4025 19.1439 17.414 19.1439 16.7745C19.1439 14.6813 19.4906 13.8092 18.5084 13.5766C18.2196 13.5185 17.9885 13.4603 17.1796 13.4603C16.1397 13.4603 15.2731 13.4603 14.8109 13.6929C14.4643 13.8673 14.2332 14.2162 14.4065 14.2162C14.5798 14.2162 15.042 14.3325 15.2731 14.6232C15.562 15.0302 15.562 15.9023 15.562 15.9023C15.562 15.9023 15.7353 18.4025 15.1575 18.6932C14.7531 18.9257 14.2332 18.4606 13.0777 16.4838C12.4999 15.4953 12.0377 14.3325 12.0377 14.3325C12.0377 14.3325 11.98 14.0999 11.8067 13.9836C11.6333 13.8673 11.3445 13.8092 11.3445 13.8092H8.62909C8.62909 13.8092 8.22468 13.8092 8.05135 13.9836C7.93581 14.1581 8.05135 14.4488 8.05135 14.4488C8.05135 14.4488 10.189 19.449 12.6155 22.0073C14.6953 24.5656 17.2374 24.3912 17.2374 24.3912Z" fill="white"/>
</svg>
